<?xml version="1.0" encoding="UTF-8" standalone="no"?>
<svg
	 width="210mm"
	 height="297mm"
	 viewBox="0 0 744.09449 1052.3622"
	 id="svg2"
	 version="1.1"
	 >
	 <g id="layer1">
		 <path id="path_b34b3_0"
		  style="fill:none;fill-rule:evenodd;stroke:#000000;stroke-width:1px;stroke-linecap:butt;stroke-linejoin:miter;stroke-opacity:1"
		  d="m 110.83307,130.76614 6.6,0 0,4.5 -6.6,0 z"
		 />
		 <path id="path_b34b3_1"
		  style="fill:none;fill-rule:evenodd;stroke:#000000;stroke-width:1px;stroke-linecap:butt;stroke-linejoin:miter;stroke-opacity:1"
		  d="m 110.83307,141.36615 6.6,0 0,4.5 -6.6,0 z"
		 />
		 <path id="path_b34b3_2"
		  style="fill:none;fill-rule:evenodd;stroke:#000000;stroke-width:1px;stroke-linecap:butt;stroke-linejoin:miter;stroke-opacity:1"
		  d="m 109.433075,151.76614 3.0,0 0,3.5 -3.0,0 z"
		 />
		 <path id="path_b34b3_3"
		  style="fill:none;fill-rule:evenodd;stroke:#000000;stroke-width:1px;stroke-linecap:butt;stroke-linejoin:miter;stroke-opacity:1"
		  d="m 105.933075,159.06613 3.0,0 0,3.6 -3.0,0 z"
		 />
		 <path id="path_b34b3_4"
		  style="fill:none;fill-rule:evenodd;stroke:#000000;stroke-width:1px;stroke-linecap:butt;stroke-linejoin:miter;stroke-opacity:1"
		  d="m 112.933075,159.06613 3.0,0 0,3.6 -3.0,0 z"
		 />
		 <path id="path_b34b3_5"
		  style="fill:none;fill-rule:evenodd;stroke:#000000;stroke-width:1px;stroke-linecap:butt;stroke-linejoin:miter;stroke-opacity:1"
		  d="m 102.033066,166.46614 4.5,0 0,6.7 -4.5,0 z"
		 />
		 <path id="path_b34b3_6"
		  style="fill:none;fill-rule:evenodd;stroke:#000000;stroke-width:1px;stroke-linecap:butt;stroke-linejoin:miter;stroke-opacity:1"
		  d="m 112.73308,166.46614 4.5,0 0,6.7 -4.5,0 z"
		 />
		 <path id="path_b34b3_7"
		  style="fill:none;fill-rule:evenodd;stroke:#000000;stroke-width:1px;stroke-linecap:butt;stroke-linejoin:miter;stroke-opacity:1"
		  d="m 134.03307,171.26614 6.2,0 0,9.8 -6.2,0 z"
		 />
		 <path id="path_b34b3_8"
		  style="fill:none;fill-rule:evenodd;stroke:#000000;stroke-width:1px;stroke-linecap:butt;stroke-linejoin:miter;stroke-opacity:1"
		  d="m 148.43307,171.26614 6.2,0 0,9.8 -6.2,0 z"
		 />
		 <path id="path_b34b3_9"
		  style="fill:none;fill-rule:evenodd;stroke:#000000;stroke-width:1px;stroke-linecap:butt;stroke-linejoin:miter;stroke-opacity:1"
		  d="m 250.13307,167.66614 6.2,0 0,9.8 -6.2,0 z"
		 />
		 <path id="path_b34b3_10"
		  style="fill:none;fill-rule:evenodd;stroke:#000000;stroke-width:1px;stroke-linecap:butt;stroke-linejoin:miter;stroke-opacity:1"
		  d="m 264.53308,167.66614 6.2,0 0,9.8 -6.2,0 z"
		 />
		 <path id="path_b34b3_11"
		  style="fill:none;fill-rule:evenodd;stroke:#000000;stroke-width:1px;stroke-linecap:butt;stroke-linejoin:miter;stroke-opacity:1"
		  d="m 240.23308,172.16614 6.2,0 0,9.8 -6.2,0 z"
		 />
		 <path id="path_b34b3_12"
		  style="fill:none;fill-rule:evenodd;stroke:#000000;stroke-width:1px;stroke-linecap:butt;stroke-linejoin:miter;stroke-opacity:1"
		  d="m 225.83307,172.16614 6.2,0 0,9.8 -6.2,0 z"
		 />
		 <path id="path_b34b3_13"
		  style="fill:none;fill-rule:evenodd;stroke:#000000;stroke-width:1px;stroke-linecap:butt;stroke-linejoin:miter;stroke-opacity:1"
		  d="m 233.83307,184.96614 4.5,0 0,6.6 -4.5,0 z"
		 />
		 <path id="path_b34b3_14"
		  style="fill:none;fill-rule:evenodd;stroke:#000000;stroke-width:1px;stroke-linecap:butt;stroke-linejoin:miter;stroke-opacity:1"
		  d="m 244.43307,184.96614 4.5,0 0,6.6 -4.5,0 z"
		 />
		 <path id="path_b34b3_15"
		  style="fill:none;fill-rule:evenodd;stroke:#000000;stroke-width:1px;stroke-linecap:butt;stroke-linejoin:miter;stroke-opacity:1"
		  d="m 234.53308,194.66614 6.7,0 0,4.5 -6.7,0 z"
		 />
		 <path id="path_b34b3_16"
		  style="fill:none;fill-rule:evenodd;stroke:#000000;stroke-width:1px;stroke-linecap:butt;stroke-linejoin:miter;stroke-opacity:1"
		  d="m 234.53308,205.26614 6.7,0 0,4.5 -6.7,0 z"
		 />
		 <path id="path_b34b3_17"
		  style="fill:none;fill-rule:evenodd;stroke:#000000;stroke-width:1px;stroke-linecap:butt;stroke-linejoin:miter;stroke-opacity:1"
		  d="m 225.23308,200.26614 4.5,0 0,6.6 -4.5,0 z"
		 />
		 <path id="path_b34b3_18"
		  style="fill:none;fill-rule:evenodd;stroke:#000000;stroke-width:1px;stroke-linecap:butt;stroke-linejoin:miter;stroke-opacity:1"
		  d="m 214.53308,200.26614 4.5,0 0,6.6 -4.5,0 z"
		 />
		 <path id="path_b34b3_19"
		  style="fill:none;fill-rule:evenodd;stroke:#000000;stroke-width:1px;stroke-linecap:butt;stroke-linejoin:miter;stroke-opacity:1"
		  d="m 214.53308,191.26614 4.5,0 0,6.6 -4.5,0 z"
		 />
		 <path id="path_b34b3_20"
		  style="fill:none;fill-rule:evenodd;stroke:#000000;stroke-width:1px;stroke-linecap:butt;stroke-linejoin:miter;stroke-opacity:1"
		  d="m 225.23308,191.26614 4.5,0 0,6.6 -4.5,0 z"
		 />
		 <path id="path_b34b3_21"
		  style="fill:none;fill-rule:evenodd;stroke:#000000;stroke-width:1px;stroke-linecap:butt;stroke-linejoin:miter;stroke-opacity:1"
		  d="m 206.43307,191.26614 4.5,0 0,6.6 -4.5,0 z"
		 />
		 <path id="path_b34b3_22"
		  style="fill:none;fill-rule:evenodd;stroke:#000000;stroke-width:1px;stroke-linecap:butt;stroke-linejoin:miter;stroke-opacity:1"
		  d="m 195.73308,191.26614 4.5,0 0,6.6 -4.5,0 z"
		 />
		 <path id="path_b34b3_23"
		  style="fill:none;fill-rule:evenodd;stroke:#000000;stroke-width:1px;stroke-linecap:butt;stroke-linejoin:miter;stroke-opacity:1"
		  d="m 195.63307,200.26614 4.5,0 0,6.6 -4.5,0 z"
		 />
		 <path id="path_b34b3_24"
		  style="fill:none;fill-rule:evenodd;stroke:#000000;stroke-width:1px;stroke-linecap:butt;stroke-linejoin:miter;stroke-opacity:1"
		  d="m 206.33307,200.26614 4.5,0 0,6.6 -4.5,0 z"
		 />
		 <path id="path_b34b3_25"
		  style="fill:none;fill-rule:evenodd;stroke:#000000;stroke-width:1px;stroke-linecap:butt;stroke-linejoin:miter;stroke-opacity:1"
		  d="m 207.83307,211.46616 4.5,0 0,6.7 -4.5,0 z"
		 />
		 <path id="path_b34b3_26"
		  style="fill:none;fill-rule:evenodd;stroke:#000000;stroke-width:1px;stroke-linecap:butt;stroke-linejoin:miter;stroke-opacity:1"
		  d="m 218.43307,211.46616 4.5,0 0,6.7 -4.5,0 z"
		 />
		 <path id="path_b34b3_27"
		  style="fill:none;fill-rule:evenodd;stroke:#000000;stroke-width:1px;stroke-linecap:butt;stroke-linejoin:miter;stroke-opacity:1"
		  d="m 189.33307,211.46616 4.5,0 0,6.7 -4.5,0 z"
		 />
		 <path id="path_b34b3_28"
		  style="fill:none;fill-rule:evenodd;stroke:#000000;stroke-width:1px;stroke-linecap:butt;stroke-linejoin:miter;stroke-opacity:1"
		  d="m 199.93307,211.46616 4.5,0 0,6.7 -4.5,0 z"
		 />
		 <path id="path_b34b3_29"
		  style="fill:none;fill-rule:evenodd;stroke:#000000;stroke-width:1px;stroke-linecap:butt;stroke-linejoin:miter;stroke-opacity:1"
		  d="m 162.53307,207.26614 6.7,0 0,4.5 -6.7,0 z"
		 />
		 <path id="path_b34b3_30"
		  style="fill:none;fill-rule:evenodd;stroke:#000000;stroke-width:1px;stroke-linecap:butt;stroke-linejoin:miter;stroke-opacity:1"
		  d="m 162.53307,217.86615 6.7,0 0,4.5 -6.7,0 z"
		 />
		 <path id="path_b34b3_31"
		  style="fill:none;fill-rule:evenodd;stroke:#000000;stroke-width:1px;stroke-linecap:butt;stroke-linejoin:miter;stroke-opacity:1"
		  d="m 108.83307,175.46614 4.5,0 0,6.7 -4.5,0 z"
		 />
		 <path id="path_b34b3_32"
		  style="fill:none;fill-rule:evenodd;stroke:#000000;stroke-width:1px;stroke-linecap:butt;stroke-linejoin:miter;stroke-opacity:1"
		  d="m 119.433075,175.46614 4.5,0 0,6.7 -4.5,0 z"
		 />
		 <path id="path_b34b3_33"
		  style="fill:none;fill-rule:evenodd;stroke:#000000;stroke-width:1px;stroke-linecap:butt;stroke-linejoin:miter;stroke-opacity:1"
		  d="m 108.83307,184.46614 4.5,0 0,6.7 -4.5,0 z"
		 />
		 <path id="path_b34b3_34"
		  style="fill:none;fill-rule:evenodd;stroke:#000000;stroke-width:1px;stroke-linecap:butt;stroke-linejoin:miter;stroke-opacity:1"
		  d="m 119.433075,184.46614 4.5,0 0,6.7 -4.5,0 z"
		 />
		 <path id="path_b34b3_35"
		  style="fill:none;fill-rule:evenodd;stroke:#000000;stroke-width:1px;stroke-linecap:butt;stroke-linejoin:miter;stroke-opacity:1"
		  d="m 108.83307,193.46614 4.5,0 0,6.7 -4.5,0 z"
		 />
		 <path id="path_b34b3_36"
		  style="fill:none;fill-rule:evenodd;stroke:#000000;stroke-width:1px;stroke-linecap:butt;stroke-linejoin:miter;stroke-opacity:1"
		  d="m 119.433075,193.46614 4.5,0 0,6.7 -4.5,0 z"
		 />
		 <path id="path_b34b3_37"
		  style="fill:none;fill-rule:evenodd;stroke:#000000;stroke-width:1px;stroke-linecap:butt;stroke-linejoin:miter;stroke-opacity:1"
		  d="m 108.83307,202.46616 4.5,0 0,6.7 -4.5,0 z"
		 />
		 <path id="path_b34b3_38"
		  style="fill:none;fill-rule:evenodd;stroke:#000000;stroke-width:1px;stroke-linecap:butt;stroke-linejoin:miter;stroke-opacity:1"
		  d="m 119.433075,202.46616 4.5,0 0,6.7 -4.5,0 z"
		 />
		 <path id="path_b34b3_39"
		  style="fill:none;fill-rule:evenodd;stroke:#000000;stroke-width:1px;stroke-linecap:butt;stroke-linejoin:miter;stroke-opacity:1"
		  d="m 108.83307,211.46616 4.5,0 0,6.7 -4.5,0 z"
		 />
		 <path id="path_b34b3_40"
		  style="fill:none;fill-rule:evenodd;stroke:#000000;stroke-width:1px;stroke-linecap:butt;stroke-linejoin:miter;stroke-opacity:1"
		  d="m 119.433075,211.46616 4.5,0 0,6.7 -4.5,0 z"
		 />
		 <path id="path_b34b3_41"
		  style="fill:none;fill-rule:evenodd;stroke:#000000;stroke-width:1px;stroke-linecap:butt;stroke-linejoin:miter;stroke-opacity:1"
		  d="m 108.83307,220.46616 4.5,0 0,6.7 -4.5,0 z"
		 />
		 <path id="path_b34b3_42"
		  style="fill:none;fill-rule:evenodd;stroke:#000000;stroke-width:1px;stroke-linecap:butt;stroke-linejoin:miter;stroke-opacity:1"
		  d="m 119.433075,220.46616 4.5,0 0,6.7 -4.5,0 z"
		 />
		 <path id="path_b34b3_43"
		  style="fill:none;fill-rule:evenodd;stroke:#000000;stroke-width:1px;stroke-linecap:butt;stroke-linejoin:miter;stroke-opacity:1"
		  d="m 133.53307,184.46614 4.5,0 0,6.7 -4.5,0 z"
		 />
		 <path id="path_b34b3_44"
		  style="fill:none;fill-rule:evenodd;stroke:#000000;stroke-width:1px;stroke-linecap:butt;stroke-linejoin:miter;stroke-opacity:1"
		  d="m 144.23308,184.46614 4.5,0 0,6.7 -4.5,0 z"
		 />
		 <path id="path_b34b3_45"
		  style="fill:none;fill-rule:evenodd;stroke:#000000;stroke-width:1px;stroke-linecap:butt;stroke-linejoin:miter;stroke-opacity:1"
		  d="m 144.23308,193.46614 4.5,0 0,6.7 -4.5,0 z"
		 />
		 <path id="path_b34b3_46"
		  style="fill:none;fill-rule:evenodd;stroke:#000000;stroke-width:1px;stroke-linecap:butt;stroke-linejoin:miter;stroke-opacity:1"
		  d="m 133.53307,193.46614 4.5,0 0,6.7 -4.5,0 z"
		 />
		 <path id="path_b34b3_47"
		  style="fill:none;fill-rule:evenodd;stroke:#000000;stroke-width:1px;stroke-linecap:butt;stroke-linejoin:miter;stroke-opacity:1"
		  d="m 133.53307,202.46616 4.5,0 0,6.7 -4.5,0 z"
		 />
		 <path id="path_b34b3_48"
		  style="fill:none;fill-rule:evenodd;stroke:#000000;stroke-width:1px;stroke-linecap:butt;stroke-linejoin:miter;stroke-opacity:1"
		  d="m 144.23308,202.46616 4.5,0 0,6.7 -4.5,0 z"
		 />
		 <path id="path_b34b3_49"
		  style="fill:none;fill-rule:evenodd;stroke:#000000;stroke-width:1px;stroke-linecap:butt;stroke-linejoin:miter;stroke-opacity:1"
		  d="m 144.23308,211.46616 4.5,0 0,6.7 -4.5,0 z"
		 />
		 <path id="path_b34b3_50"
		  style="fill:none;fill-rule:evenodd;stroke:#000000;stroke-width:1px;stroke-linecap:butt;stroke-linejoin:miter;stroke-opacity:1"
		  d="m 133.53307,211.46616 4.5,0 0,6.7 -4.5,0 z"
		 />
		 <path id="path_b34b3_51"
		  style="fill:none;fill-rule:evenodd;stroke:#000000;stroke-width:1px;stroke-linecap:butt;stroke-linejoin:miter;stroke-opacity:1"
		  d="m 133.53307,220.46616 4.5,0 0,6.7 -4.5,0 z"
		 />
		 <path id="path_b34b3_52"
		  style="fill:none;fill-rule:evenodd;stroke:#000000;stroke-width:1px;stroke-linecap:butt;stroke-linejoin:miter;stroke-opacity:1"
		  d="m 144.23308,220.46616 4.5,0 0,6.7 -4.5,0 z"
		 />
		 <path id="path_b34b3_53"
		  style="fill:none;fill-rule:evenodd;stroke:#000000;stroke-width:1px;stroke-linecap:butt;stroke-linejoin:miter;stroke-opacity:1"
		  d="m 133.53307,229.46616 4.5,0 0,6.7 -4.5,0 z"
		 />
		 <path id="path_b34b3_54"
		  style="fill:none;fill-rule:evenodd;stroke:#000000;stroke-width:1px;stroke-linecap:butt;stroke-linejoin:miter;stroke-opacity:1"
		  d="m 144.23308,229.46616 4.5,0 0,6.7 -4.5,0 z"
		 />
		 <path id="path_b34b3_55"
		  style="fill:none;fill-rule:evenodd;stroke:#000000;stroke-width:1px;stroke-linecap:butt;stroke-linejoin:miter;stroke-opacity:1"
		  d="m 108.83307,228.56613 4.5,0 0,6.7 -4.5,0 z"
		 />
		 <path id="path_b34b3_56"
		  style="fill:none;fill-rule:evenodd;stroke:#000000;stroke-width:1px;stroke-linecap:butt;stroke-linejoin:miter;stroke-opacity:1"
		  d="m 119.433075,228.56613 4.5,0 0,6.7 -4.5,0 z"
		 />
		 <path id="path_b34b3_57"
		  style="fill:none;fill-rule:evenodd;stroke:#000000;stroke-width:1px;stroke-linecap:butt;stroke-linejoin:miter;stroke-opacity:1"
		  d="m 108.83307,238.46616 4.5,0 0,6.7 -4.5,0 z"
		 />
		 <path id="path_b34b3_58"
		  style="fill:none;fill-rule:evenodd;stroke:#000000;stroke-width:1px;stroke-linecap:butt;stroke-linejoin:miter;stroke-opacity:1"
		  d="m 119.433075,238.46616 4.5,0 0,6.7 -4.5,0 z"
		 />
		 <path id="path_b34b3_59"
		  style="fill:none;fill-rule:evenodd;stroke:#000000;stroke-width:1px;stroke-linecap:butt;stroke-linejoin:miter;stroke-opacity:1"
		  d="m 108.83307,247.46616 4.5,0 0,6.7 -4.5,0 z"
		 />
		 <path id="path_b34b3_60"
		  style="fill:none;fill-rule:evenodd;stroke:#000000;stroke-width:1px;stroke-linecap:butt;stroke-linejoin:miter;stroke-opacity:1"
		  d="m 119.433075,247.46616 4.5,0 0,6.7 -4.5,0 z"
		 />
		 <path id="path_b34b3_61"
		  style="fill:none;fill-rule:evenodd;stroke:#000000;stroke-width:1px;stroke-linecap:butt;stroke-linejoin:miter;stroke-opacity:1"
		  d="m 133.53307,242.96616 4.5,0 0,6.7 -4.5,0 z"
		 />
		 <path id="path_b34b3_62"
		  style="fill:none;fill-rule:evenodd;stroke:#000000;stroke-width:1px;stroke-linecap:butt;stroke-linejoin:miter;stroke-opacity:1"
		  d="m 144.23308,242.96616 4.5,0 0,6.7 -4.5,0 z"
		 />
		 <path id="path_b34b3_63"
		  style="fill:none;fill-rule:evenodd;stroke:#000000;stroke-width:1px;stroke-linecap:butt;stroke-linejoin:miter;stroke-opacity:1"
		  d="m 144.23308,251.96616 4.5,0 0,6.7 -4.5,0 z"
		 />
		 <path id="path_b34b3_64"
		  style="fill:none;fill-rule:evenodd;stroke:#000000;stroke-width:1px;stroke-linecap:butt;stroke-linejoin:miter;stroke-opacity:1"
		  d="m 133.53307,251.96616 4.5,0 0,6.7 -4.5,0 z"
		 />
		 <path id="path_b34b3_65"
		  style="fill:none;fill-rule:evenodd;stroke:#000000;stroke-width:1px;stroke-linecap:butt;stroke-linejoin:miter;stroke-opacity:1"
		  d="m 133.53307,260.96616 4.5,0 0,6.7 -4.5,0 z"
		 />
		 <path id="path_b34b3_66"
		  style="fill:none;fill-rule:evenodd;stroke:#000000;stroke-width:1px;stroke-linecap:butt;stroke-linejoin:miter;stroke-opacity:1"
		  d="m 144.23308,260.96616 4.5,0 0,6.7 -4.5,0 z"
		 />
		 <path id="path_b34b3_67"
		  style="fill:none;fill-rule:evenodd;stroke:#000000;stroke-width:1px;stroke-linecap:butt;stroke-linejoin:miter;stroke-opacity:1"
		  d="m 144.23308,269.96616 4.5,0 0,6.7 -4.5,0 z"
		 />
		 <path id="path_b34b3_68"
		  style="fill:none;fill-rule:evenodd;stroke:#000000;stroke-width:1px;stroke-linecap:butt;stroke-linejoin:miter;stroke-opacity:1"
		  d="m 133.53307,269.96616 4.5,0 0,6.7 -4.5,0 z"
		 />
		 <path id="path_b34b3_69"
		  style="fill:none;fill-rule:evenodd;stroke:#000000;stroke-width:1px;stroke-linecap:butt;stroke-linejoin:miter;stroke-opacity:1"
		  d="m 108.83307,256.46616 4.5,0 0,6.7 -4.5,0 z"
		 />
		 <path id="path_b34b3_70"
		  style="fill:none;fill-rule:evenodd;stroke:#000000;stroke-width:1px;stroke-linecap:butt;stroke-linejoin:miter;stroke-opacity:1"
		  d="m 119.433075,256.46616 4.5,0 0,6.7 -4.5,0 z"
		 />
		 <path id="path_b34b3_71"
		  style="fill:none;fill-rule:evenodd;stroke:#000000;stroke-width:1px;stroke-linecap:butt;stroke-linejoin:miter;stroke-opacity:1"
		  d="m 119.433075,265.46616 4.5,0 0,6.7 -4.5,0 z"
		 />
		 <path id="path_b34b3_72"
		  style="fill:none;fill-rule:evenodd;stroke:#000000;stroke-width:1px;stroke-linecap:butt;stroke-linejoin:miter;stroke-opacity:1"
		  d="m 108.83307,265.46616 4.5,0 0,6.7 -4.5,0 z"
		 />
		 <path id="path_b34b3_73"
		  style="fill:none;fill-rule:evenodd;stroke:#000000;stroke-width:1px;stroke-linecap:butt;stroke-linejoin:miter;stroke-opacity:1"
		  d="m 108.83307,274.46616 4.5,0 0,6.7 -4.5,0 z"
		 />
		 <path id="path_b34b3_74"
		  style="fill:none;fill-rule:evenodd;stroke:#000000;stroke-width:1px;stroke-linecap:butt;stroke-linejoin:miter;stroke-opacity:1"
		  d="m 119.433075,274.46616 4.5,0 0,6.7 -4.5,0 z"
		 />
		 <path id="path_b34b3_75"
		  style="fill:none;fill-rule:evenodd;stroke:#000000;stroke-width:1px;stroke-linecap:butt;stroke-linejoin:miter;stroke-opacity:1"
		  d="m 114.83307,283.66614 6.7,0 0,4.5 -6.7,0 z"
		 />
		 <path id="path_b34b3_76"
		  style="fill:none;fill-rule:evenodd;stroke:#000000;stroke-width:1px;stroke-linecap:butt;stroke-linejoin:miter;stroke-opacity:1"
		  d="m 114.83307,294.26614 6.7,0 0,4.5 -6.7,0 z"
		 />
		 <path id="path_b34b3_77"
		  style="fill:none;fill-rule:evenodd;stroke:#000000;stroke-width:1px;stroke-linecap:butt;stroke-linejoin:miter;stroke-opacity:1"
		  d="m 108.83307,305.96616 4.5,0 0,6.7 -4.5,0 z"
		 />
		 <path id="path_b34b3_78"
		  style="fill:none;fill-rule:evenodd;stroke:#000000;stroke-width:1px;stroke-linecap:butt;stroke-linejoin:miter;stroke-opacity:1"
		  d="m 119.433075,305.96616 4.5,0 0,6.7 -4.5,0 z"
		 />
		 <path id="path_b34b3_79"
		  style="fill:none;fill-rule:evenodd;stroke:#000000;stroke-width:1px;stroke-linecap:butt;stroke-linejoin:miter;stroke-opacity:1"
		  d="m 106.33307,349.86615 6.6,0 0,4.5 -6.6,0 z"
		 />
		 <path id="path_b34b3_80"
		  style="fill:none;fill-rule:evenodd;stroke:#000000;stroke-width:1px;stroke-linecap:butt;stroke-linejoin:miter;stroke-opacity:1"
		  d="m 106.33307,360.46616 6.6,0 0,4.5 -6.6,0 z"
		 />
		 <path id="path_b34b3_81"
		  style="fill:none;fill-rule:evenodd;stroke:#000000;stroke-width:1px;stroke-linecap:butt;stroke-linejoin:miter;stroke-opacity:1"
		  d="m 117.533066,349.86615 6.7,0 0,4.5 -6.7,0 z"
		 />
		 <path id="path_b34b3_82"
		  style="fill:none;fill-rule:evenodd;stroke:#000000;stroke-width:1px;stroke-linecap:butt;stroke-linejoin:miter;stroke-opacity:1"
		  d="m 117.533066,360.46616 6.7,0 0,4.5 -6.7,0 z"
		 />
		 <path id="path_b34b3_83"
		  style="fill:none;fill-rule:evenodd;stroke:#000000;stroke-width:1px;stroke-linecap:butt;stroke-linejoin:miter;stroke-opacity:1"
		  d="m 126.533066,349.86615 6.7,0 0,4.5 -6.7,0 z"
		 />
		 <path id="path_b34b3_84"
		  style="fill:none;fill-rule:evenodd;stroke:#000000;stroke-width:1px;stroke-linecap:butt;stroke-linejoin:miter;stroke-opacity:1"
		  d="m 126.533066,360.46616 6.7,0 0,4.5 -6.7,0 z"
		 />
		 <path id="path_b34b3_85"
		  style="fill:none;fill-rule:evenodd;stroke:#000000;stroke-width:1px;stroke-linecap:butt;stroke-linejoin:miter;stroke-opacity:1"
		  d="m 102.933075,368.66614 4.5,0 0,4.4 -4.5,0 z"
		 />
		 <path id="path_b34b3_86"
		  style="fill:none;fill-rule:evenodd;stroke:#000000;stroke-width:1px;stroke-linecap:butt;stroke-linejoin:miter;stroke-opacity:1"
		  d="m 110.13307,368.66614 4.5,0 0,4.4 -4.5,0 z"
		 />
		 <path id="path_b34b3_87"
		  style="fill:none;fill-rule:evenodd;stroke:#000000;stroke-width:1px;stroke-linecap:butt;stroke-linejoin:miter;stroke-opacity:1"
		  d="m 120.933075,368.76614 4.5,0 0,4.4 -4.5,0 z"
		 />
		 <path id="path_b34b3_88"
		  style="fill:none;fill-rule:evenodd;stroke:#000000;stroke-width:1px;stroke-linecap:butt;stroke-linejoin:miter;stroke-opacity:1"
		  d="m 128.13307,368.76614 4.5,0 0,4.4 -4.5,0 z"
		 />
		 <path id="path_b34b3_89"
		  style="fill:none;fill-rule:evenodd;stroke:#000000;stroke-width:1px;stroke-linecap:butt;stroke-linejoin:miter;stroke-opacity:1"
		  d="m 138.93307,368.76614 4.5,0 0,4.4 -4.5,0 z"
		 />
		 <path id="path_b34b3_90"
		  style="fill:none;fill-rule:evenodd;stroke:#000000;stroke-width:1px;stroke-linecap:butt;stroke-linejoin:miter;stroke-opacity:1"
		  d="m 146.13307,368.76614 4.5,0 0,4.4 -4.5,0 z"
		 />
		 <path id="path_b34b3_91"
		  style="fill:none;fill-rule:evenodd;stroke:#000000;stroke-width:1px;stroke-linecap:butt;stroke-linejoin:miter;stroke-opacity:1"
		  d="m 137.93307,390.66614 7.0,0 0,7.7 -7.0,0 z"
		 />
		 <path id="path_b34b3_92"
		  style="fill:none;fill-rule:evenodd;stroke:#000000;stroke-width:1px;stroke-linecap:butt;stroke-linejoin:miter;stroke-opacity:1"
		  d="m 85.13307,389.96616 7.7,0 0,7.0 -7.7,0 z"
		 />
		 <path id="path_b34b3_93"
		  style="fill:none;fill-rule:evenodd;stroke:#000000;stroke-width:1px;stroke-linecap:butt;stroke-linejoin:miter;stroke-opacity:1"
		  d="m 85.13307,437.76614 7.7,0 0,7.0 -7.7,0 z"
		 />
		 <path id="path_b34b3_94"
		  style="fill:none;fill-rule:evenodd;stroke:#000000;stroke-width:1px;stroke-linecap:butt;stroke-linejoin:miter;stroke-opacity:1"
		  d="m 105.73308,438.96616 5.8,0 0,5.4 -5.8,0 z"
		 />
		 <path id="path_b34b3_95"
		  style="fill:none;fill-rule:evenodd;stroke:#000000;stroke-width:1px;stroke-linecap:butt;stroke-linejoin:miter;stroke-opacity:1"
		  d="m 137.93307,437.86615 7.0,0 0,7.5 -7.0,0 z"
		 />
		 <path id="path_b34b3_96"
		  style="fill:none;fill-rule:evenodd;stroke:#000000;stroke-width:1px;stroke-linecap:butt;stroke-linejoin:miter;stroke-opacity:1"
		  d="m 137.93307,406.16614 6.7,0 0,1.8 -6.7,0 z"
		 />
		 <path id="path_b34b3_97"
		  style="fill:none;fill-rule:evenodd;stroke:#000000;stroke-width:1px;stroke-linecap:butt;stroke-linejoin:miter;stroke-opacity:1"
		  d="m 137.93307,410.06616 6.7,0 0,1.8 -6.7,0 z"
		 />
		 <path id="path_b34b3_98"
		  style="fill:none;fill-rule:evenodd;stroke:#000000;stroke-width:1px;stroke-linecap:butt;stroke-linejoin:miter;stroke-opacity:1"
		  d="m 137.93307,413.96616 6.7,0 0,1.8 -6.7,0 z"
		 />
		 <path id="path_b34b3_99"
		  style="fill:none;fill-rule:evenodd;stroke:#000000;stroke-width:1px;stroke-linecap:butt;stroke-linejoin:miter;stroke-opacity:1"
		  d="m 137.93307,417.86615 6.7,0 0,1.8 -6.7,0 z"
		 />
		 <path id="path_b34b3_100"
		  style="fill:none;fill-rule:evenodd;stroke:#000000;stroke-width:1px;stroke-linecap:butt;stroke-linejoin:miter;stroke-opacity:1"
		  d="m 137.93307,421.76614 6.7,0 0,1.8 -6.7,0 z"
		 />
		 <path id="path_b34b3_101"
		  style="fill:none;fill-rule:evenodd;stroke:#000000;stroke-width:1px;stroke-linecap:butt;stroke-linejoin:miter;stroke-opacity:1"
		  d="m 137.93307,425.66614 6.7,0 0,1.8 -6.7,0 z"
		 />
		 <path id="path_b34b3_102"
		  style="fill:none;fill-rule:evenodd;stroke:#000000;stroke-width:1px;stroke-linecap:butt;stroke-linejoin:miter;stroke-opacity:1"
		  d="m 137.93307,429.56616 6.7,0 0,1.8 -6.7,0 z"
		 />
		 <path id="path_b34b3_103"
		  style="fill:none;fill-rule:evenodd;stroke:#000000;stroke-width:1px;stroke-linecap:butt;stroke-linejoin:miter;stroke-opacity:1"
		  d="m 137.93307,433.46616 6.7,0 0,1.8 -6.7,0 z"
		 />
		 <path id="path_b34b3_104"
		  style="fill:none;fill-rule:evenodd;stroke:#000000;stroke-width:1px;stroke-linecap:butt;stroke-linejoin:miter;stroke-opacity:1"
		  d="m 133.43307,440.26614 2.7,0 0,2.7 -2.7,0 z"
		 />
		 <path id="path_b34b3_105"
		  style="fill:none;fill-rule:evenodd;stroke:#000000;stroke-width:1px;stroke-linecap:butt;stroke-linejoin:miter;stroke-opacity:1"
		  d="m 156.23308,426.86615 6.7,0 0,4.5 -6.7,0 z"
		 />
		 <path id="path_b34b3_106"
		  style="fill:none;fill-rule:evenodd;stroke:#000000;stroke-width:1px;stroke-linecap:butt;stroke-linejoin:miter;stroke-opacity:1"
		  d="m 156.23308,437.46616 6.7,0 0,4.5 -6.7,0 z"
		 />
		 <path id="path_b34b3_107"
		  style="fill:none;fill-rule:evenodd;stroke:#000000;stroke-width:1px;stroke-linecap:butt;stroke-linejoin:miter;stroke-opacity:1"
		  d="m 166.13307,436.76614 6.7,0 0,4.5 -6.7,0 z"
		 />
		 <path id="path_b34b3_108"
		  style="fill:none;fill-rule:evenodd;stroke:#000000;stroke-width:1px;stroke-linecap:butt;stroke-linejoin:miter;stroke-opacity:1"
		  d="m 166.13307,447.36615 6.7,0 0,4.5 -6.7,0 z"
		 />
		 <path id="path_b34b3_109"
		  style="fill:none;fill-rule:evenodd;stroke:#000000;stroke-width:1px;stroke-linecap:butt;stroke-linejoin:miter;stroke-opacity:1"
		  d="m 253.33307,214.36615 6.3,0 0,1.2 -6.3,0 z"
		 />
		 <path id="path_b34b3_110"
		  style="fill:none;fill-rule:evenodd;stroke:#000000;stroke-width:1px;stroke-linecap:butt;stroke-linejoin:miter;stroke-opacity:1"
		  d="m 253.33307,217.16614 6.3,0 0,1.2 -6.3,0 z"
		 />
		 <path id="path_b34b3_111"
		  style="fill:none;fill-rule:evenodd;stroke:#000000;stroke-width:1px;stroke-linecap:butt;stroke-linejoin:miter;stroke-opacity:1"
		  d="m 253.33307,219.96616 6.2,0 0,1.2 -6.2,0 z"
		 />
		 <path id="path_b34b3_112"
		  style="fill:none;fill-rule:evenodd;stroke:#000000;stroke-width:1px;stroke-linecap:butt;stroke-linejoin:miter;stroke-opacity:1"
		  d="m 253.33307,222.86615 6.3,0 0,1.2 -6.3,0 z"
		 />
		 <path id="path_b34b3_113"
		  style="fill:none;fill-rule:evenodd;stroke:#000000;stroke-width:1px;stroke-linecap:butt;stroke-linejoin:miter;stroke-opacity:1"
		  d="m 253.33307,225.66614 6.3,0 0,1.2 -6.3,0 z"
		 />
		 <path id="path_b34b3_114"
		  style="fill:none;fill-rule:evenodd;stroke:#000000;stroke-width:1px;stroke-linecap:butt;stroke-linejoin:miter;stroke-opacity:1"
		  d="m 253.33307,228.46616 6.1,0 0,1.2 -6.1,0 z"
		 />
		 <path id="path_b34b3_115"
		  style="fill:none;fill-rule:evenodd;stroke:#000000;stroke-width:1px;stroke-linecap:butt;stroke-linejoin:miter;stroke-opacity:1"
		  d="m 253.33307,231.36615 6.1,0 0,1.2 -6.1,0 z"
		 />
		 <path id="path_b34b3_116"
		  style="fill:none;fill-rule:evenodd;stroke:#000000;stroke-width:1px;stroke-linecap:butt;stroke-linejoin:miter;stroke-opacity:1"
		  d="m 253.33307,234.16614 6.3,0 0,1.2 -6.3,0 z"
		 />
		 <path id="path_b34b3_117"
		  style="fill:none;fill-rule:evenodd;stroke:#000000;stroke-width:1px;stroke-linecap:butt;stroke-linejoin:miter;stroke-opacity:1"
		  d="m 253.33307,236.96616 6.3,0 0,1.2 -6.3,0 z"
		 />
		 <path id="path_b34b3_118"
		  style="fill:none;fill-rule:evenodd;stroke:#000000;stroke-width:1px;stroke-linecap:butt;stroke-linejoin:miter;stroke-opacity:1"
		  d="m 253.33307,239.86615 6.3,0 0,1.2 -6.3,0 z"
		 />
		 <path id="path_b34b3_119"
		  style="fill:none;fill-rule:evenodd;stroke:#000000;stroke-width:1px;stroke-linecap:butt;stroke-linejoin:miter;stroke-opacity:1"
		  d="m 253.33307,242.66614 6.2,0 0,1.2 -6.2,0 z"
		 />
		 <path id="path_b34b3_120"
		  style="fill:none;fill-rule:evenodd;stroke:#000000;stroke-width:1px;stroke-linecap:butt;stroke-linejoin:miter;stroke-opacity:1"
		  d="m 253.33307,245.46616 6.2,0 0,1.2 -6.2,0 z"
		 />
		 <path id="path_b34b3_121"
		  style="fill:none;fill-rule:evenodd;stroke:#000000;stroke-width:1px;stroke-linecap:butt;stroke-linejoin:miter;stroke-opacity:1"
		  d="m 253.33307,248.36615 6.3,0 0,1.2 -6.3,0 z"
		 />
		 <path id="path_b34b3_122"
		  style="fill:none;fill-rule:evenodd;stroke:#000000;stroke-width:1px;stroke-linecap:butt;stroke-linejoin:miter;stroke-opacity:1"
		  d="m 253.33307,251.16614 6.3,0 0,1.2 -6.3,0 z"
		 />
		 <path id="path_b34b3_123"
		  style="fill:none;fill-rule:evenodd;stroke:#000000;stroke-width:1px;stroke-linecap:butt;stroke-linejoin:miter;stroke-opacity:1"
		  d="m 253.33307,253.96616 6.3,0 0,1.2 -6.3,0 z"
		 />
		 <path id="path_b34b3_124"
		  style="fill:none;fill-rule:evenodd;stroke:#000000;stroke-width:1px;stroke-linecap:butt;stroke-linejoin:miter;stroke-opacity:1"
		  d="m 253.33307,256.86615 6.3,0 0,1.2 -6.3,0 z"
		 />
		 <path id="path_b34b3_125"
		  style="fill:none;fill-rule:evenodd;stroke:#000000;stroke-width:1px;stroke-linecap:butt;stroke-linejoin:miter;stroke-opacity:1"
		  d="m 253.33307,259.66614 6.1,0 0,1.2 -6.1,0 z"
		 />
		 <path id="path_b34b3_126"
		  style="fill:none;fill-rule:evenodd;stroke:#000000;stroke-width:1px;stroke-linecap:butt;stroke-linejoin:miter;stroke-opacity:1"
		  d="m 253.33307,262.46616 6.3,0 0,1.2 -6.3,0 z"
		 />
		 <path id="path_b34b3_127"
		  style="fill:none;fill-rule:evenodd;stroke:#000000;stroke-width:1px;stroke-linecap:butt;stroke-linejoin:miter;stroke-opacity:1"
		  d="m 253.33307,265.36615 6.3,0 0,1.2 -6.3,0 z"
		 />
		 <path id="path_b34b3_128"
		  style="fill:none;fill-rule:evenodd;stroke:#000000;stroke-width:1px;stroke-linecap:butt;stroke-linejoin:miter;stroke-opacity:1"
		  d="m 253.33307,268.16614 6.3,0 0,1.2 -6.3,0 z"
		 />
		 <path id="path_b34b3_129"
		  style="fill:none;fill-rule:evenodd;stroke:#000000;stroke-width:1px;stroke-linecap:butt;stroke-linejoin:miter;stroke-opacity:1"
		  d="m 253.33307,270.96616 6.3,0 0,1.2 -6.3,0 z"
		 />
		 <path id="path_b34b3_130"
		  style="fill:none;fill-rule:evenodd;stroke:#000000;stroke-width:1px;stroke-linecap:butt;stroke-linejoin:miter;stroke-opacity:1"
		  d="m 253.33307,273.86615 6.3,0 0,1.2 -6.3,0 z"
		 />
		 <path id="path_b34b3_131"
		  style="fill:none;fill-rule:evenodd;stroke:#000000;stroke-width:1px;stroke-linecap:butt;stroke-linejoin:miter;stroke-opacity:1"
		  d="m 253.33307,276.66614 6.3,0 0,1.2 -6.3,0 z"
		 />
		 <path id="path_b34b3_132"
		  style="fill:none;fill-rule:evenodd;stroke:#000000;stroke-width:1px;stroke-linecap:butt;stroke-linejoin:miter;stroke-opacity:1"
		  d="m 253.33307,279.46616 6.3,0 0,1.2 -6.3,0 z"
		 />
		 <path id="path_b34b3_133"
		  style="fill:none;fill-rule:evenodd;stroke:#000000;stroke-width:1px;stroke-linecap:butt;stroke-linejoin:miter;stroke-opacity:1"
		  d="m 253.33307,282.36615 6.3,0 0,1.2 -6.3,0 z"
		 />
		 <path id="path_b34b3_134"
		  style="fill:none;fill-rule:evenodd;stroke:#000000;stroke-width:1px;stroke-linecap:butt;stroke-linejoin:miter;stroke-opacity:1"
		  d="m 253.33307,285.16614 6.1,0 0,1.2 -6.1,0 z"
		 />
		 <path id="path_b34b3_135"
		  style="fill:none;fill-rule:evenodd;stroke:#000000;stroke-width:1px;stroke-linecap:butt;stroke-linejoin:miter;stroke-opacity:1"
		  d="m 253.33307,288.06613 6.3,0 0,1.2 -6.3,0 z"
		 />
		 <path id="path_b34b3_136"
		  style="fill:none;fill-rule:evenodd;stroke:#000000;stroke-width:1px;stroke-linecap:butt;stroke-linejoin:miter;stroke-opacity:1"
		  d="m 291.73306,288.06613 6.3,0 0,1.2 -6.3,0 z"
		 />
		 <path id="path_b34b3_137"
		  style="fill:none;fill-rule:evenodd;stroke:#000000;stroke-width:1px;stroke-linecap:butt;stroke-linejoin:miter;stroke-opacity:1"
		  d="m 291.73306,285.16614 6.3,0 0,1.2 -6.3,0 z"
		 />
		 <path id="path_b34b3_138"
		  style="fill:none;fill-rule:evenodd;stroke:#000000;stroke-width:1px;stroke-linecap:butt;stroke-linejoin:miter;stroke-opacity:1"
		  d="m 291.83307,282.36615 6.2,0 0,1.2 -6.2,0 z"
		 />
		 <path id="path_b34b3_139"
		  style="fill:none;fill-rule:evenodd;stroke:#000000;stroke-width:1px;stroke-linecap:butt;stroke-linejoin:miter;stroke-opacity:1"
		  d="m 291.93307,279.46616 6.1,0 0,1.2 -6.1,0 z"
		 />
		 <path id="path_b34b3_140"
		  style="fill:none;fill-rule:evenodd;stroke:#000000;stroke-width:1px;stroke-linecap:butt;stroke-linejoin:miter;stroke-opacity:1"
		  d="m 291.73306,276.66614 6.3,0 0,1.2 -6.3,0 z"
		 />
		 <path id="path_b34b3_141"
		  style="fill:none;fill-rule:evenodd;stroke:#000000;stroke-width:1px;stroke-linecap:butt;stroke-linejoin:miter;stroke-opacity:1"
		  d="m 291.83307,273.86615 6.2,0 0,1.2 -6.2,0 z"
		 />
		 <path id="path_b34b3_142"
		  style="fill:none;fill-rule:evenodd;stroke:#000000;stroke-width:1px;stroke-linecap:butt;stroke-linejoin:miter;stroke-opacity:1"
		  d="m 292.03308,270.96616 6.0,0 0,1.2 -6.0,0 z"
		 />
		 <path id="path_b34b3_143"
		  style="fill:none;fill-rule:evenodd;stroke:#000000;stroke-width:1px;stroke-linecap:butt;stroke-linejoin:miter;stroke-opacity:1"
		  d="m 291.73306,268.16614 6.3,0 0,1.2 -6.3,0 z"
		 />
		 <path id="path_b34b3_144"
		  style="fill:none;fill-rule:evenodd;stroke:#000000;stroke-width:1px;stroke-linecap:butt;stroke-linejoin:miter;stroke-opacity:1"
		  d="m 291.83307,265.36615 6.2,0 0,1.2 -6.2,0 z"
		 />
		 <path id="path_b34b3_145"
		  style="fill:none;fill-rule:evenodd;stroke:#000000;stroke-width:1px;stroke-linecap:butt;stroke-linejoin:miter;stroke-opacity:1"
		  d="m 291.83307,262.46616 6.2,0 0,1.2 -6.2,0 z"
		 />
		 <path id="path_b34b3_146"
		  style="fill:none;fill-rule:evenodd;stroke:#000000;stroke-width:1px;stroke-linecap:butt;stroke-linejoin:miter;stroke-opacity:1"
		  d="m 291.73306,259.66614 6.3,0 0,1.2 -6.3,0 z"
		 />
		 <path id="path_b34b3_147"
		  style="fill:none;fill-rule:evenodd;stroke:#000000;stroke-width:1px;stroke-linecap:butt;stroke-linejoin:miter;stroke-opacity:1"
		  d="m 291.83307,256.86615 6.2,0 0,1.2 -6.2,0 z"
		 />
		 <path id="path_b34b3_148"
		  style="fill:none;fill-rule:evenodd;stroke:#000000;stroke-width:1px;stroke-linecap:butt;stroke-linejoin:miter;stroke-opacity:1"
		  d="m 291.73306,253.96616 6.3,0 0,1.2 -6.3,0 z"
		 />
		 <path id="path_b34b3_149"
		  style="fill:none;fill-rule:evenodd;stroke:#000000;stroke-width:1px;stroke-linecap:butt;stroke-linejoin:miter;stroke-opacity:1"
		  d="m 291.83307,251.16614 6.2,0 0,1.2 -6.2,0 z"
		 />
		 <path id="path_b34b3_150"
		  style="fill:none;fill-rule:evenodd;stroke:#000000;stroke-width:1px;stroke-linecap:butt;stroke-linejoin:miter;stroke-opacity:1"
		  d="m 292.03308,248.36615 6.0,0 0,1.2 -6.0,0 z"
		 />
		 <path id="path_b34b3_151"
		  style="fill:none;fill-rule:evenodd;stroke:#000000;stroke-width:1px;stroke-linecap:butt;stroke-linejoin:miter;stroke-opacity:1"
		  d="m 291.73306,245.46616 6.3,0 0,1.2 -6.3,0 z"
		 />
		 <path id="path_b34b3_152"
		  style="fill:none;fill-rule:evenodd;stroke:#000000;stroke-width:1px;stroke-linecap:butt;stroke-linejoin:miter;stroke-opacity:1"
		  d="m 291.73306,242.66614 6.3,0 0,1.2 -6.3,0 z"
		 />
		 <path id="path_b34b3_153"
		  style="fill:none;fill-rule:evenodd;stroke:#000000;stroke-width:1px;stroke-linecap:butt;stroke-linejoin:miter;stroke-opacity:1"
		  d="m 291.83307,239.86615 6.2,0 0,1.2 -6.2,0 z"
		 />
		 <path id="path_b34b3_154"
		  style="fill:none;fill-rule:evenodd;stroke:#000000;stroke-width:1px;stroke-linecap:butt;stroke-linejoin:miter;stroke-opacity:1"
		  d="m 291.73306,236.96616 6.3,0 0,1.2 -6.3,0 z"
		 />
		 <path id="path_b34b3_155"
		  style="fill:none;fill-rule:evenodd;stroke:#000000;stroke-width:1px;stroke-linecap:butt;stroke-linejoin:miter;stroke-opacity:1"
		  d="m 291.93307,234.16614 6.1,0 0,1.2 -6.1,0 z"
		 />
		 <path id="path_b34b3_156"
		  style="fill:none;fill-rule:evenodd;stroke:#000000;stroke-width:1px;stroke-linecap:butt;stroke-linejoin:miter;stroke-opacity:1"
		  d="m 291.83307,231.36615 6.2,0 0,1.2 -6.2,0 z"
		 />
		 <path id="path_b34b3_157"
		  style="fill:none;fill-rule:evenodd;stroke:#000000;stroke-width:1px;stroke-linecap:butt;stroke-linejoin:miter;stroke-opacity:1"
		  d="m 291.83307,228.46616 6.2,0 0,1.2 -6.2,0 z"
		 />
		 <path id="path_b34b3_158"
		  style="fill:none;fill-rule:evenodd;stroke:#000000;stroke-width:1px;stroke-linecap:butt;stroke-linejoin:miter;stroke-opacity:1"
		  d="m 291.83307,225.66614 6.2,0 0,1.2 -6.2,0 z"
		 />
		 <path id="path_b34b3_159"
		  style="fill:none;fill-rule:evenodd;stroke:#000000;stroke-width:1px;stroke-linecap:butt;stroke-linejoin:miter;stroke-opacity:1"
		  d="m 291.73306,222.86615 6.3,0 0,1.2 -6.3,0 z"
		 />
		 <path id="path_b34b3_160"
		  style="fill:none;fill-rule:evenodd;stroke:#000000;stroke-width:1px;stroke-linecap:butt;stroke-linejoin:miter;stroke-opacity:1"
		  d="m 291.73306,219.96616 6.3,0 0,1.2 -6.3,0 z"
		 />
		 <path id="path_b34b3_161"
		  style="fill:none;fill-rule:evenodd;stroke:#000000;stroke-width:1px;stroke-linecap:butt;stroke-linejoin:miter;stroke-opacity:1"
		  d="m 291.73306,217.16614 6.3,0 0,1.2 -6.3,0 z"
		 />
		 <path id="path_b34b3_162"
		  style="fill:none;fill-rule:evenodd;stroke:#000000;stroke-width:1px;stroke-linecap:butt;stroke-linejoin:miter;stroke-opacity:1"
		  d="m 291.73306,214.36615 6.3,0 0,1.2 -6.3,0 z"
		 />
	 </g>
</svg>
